<svg width="56" height="49" viewBox="0 0 56 49" fill="none" xmlns="http://www.w3.org/2000/svg">
    <path
        d="M15.555 48.8H39.705C40.945 48.8 42.095 48.14 42.715 47.06L54.795 26.14C55.415 25.06 55.415 23.74 54.795 22.66L42.715 1.73999C42.095 0.65999 40.945 0 39.705 0H15.555C14.315 0 13.165 0.65999 12.545 1.73999L0.465 22.66C-0.155 23.74 -0.155 25.06 0.465 26.14L12.545 47.06C13.165 48.14 14.315 48.8 15.555 48.8Z"
        fill="#1B3531" />
    <path
        d="M16.6652 46.5602H38.6052C39.7352 46.5602 40.7752 45.9603 41.3452 44.9803L52.3152 25.9803C52.8752 25.0003 52.8752 23.8003 52.3152 22.8203L41.3452 3.82025C40.7852 2.84025 39.7352 2.24023 38.6052 2.24023H16.6652C15.5352 2.24023 14.4952 2.84025 13.9252 3.82025L2.95516 22.8203C2.39516 23.8003 2.39516 25.0003 2.95516 25.9803L13.9252 44.9803C14.4852 45.9603 15.5352 46.5602 16.6652 46.5602Z"
        fill="#021613" />
    <path
        d="M17.4747 44.3901H37.8047C38.6547 44.3901 39.4447 43.9402 39.8647 43.2002L50.0347 25.5902C50.4547 24.8502 50.4547 23.9502 50.0347 23.2102L39.8647 5.60016C39.4447 4.86016 38.6547 4.41016 37.8047 4.41016H17.4747C16.6247 4.41016 15.8347 4.86016 15.4147 5.60016L5.24469 23.2102C4.82469 23.9502 4.82469 24.8502 5.24469 25.5902L15.4147 43.2002C15.8347 43.9402 16.6247 44.3901 17.4747 44.3901Z"
        fill="url(#paint0_linear_477_153)" stroke="#81D8D0" stroke-width="0.82"
        stroke-miterlimit="10" />
    <defs>
        <linearGradient id="paint0_linear_477_153" x1="27.6347" y1="44.3901" x2="27.6347"
            y2="4.42016" gradientUnits="userSpaceOnUse">
            <stop stop-color="#0A6659" />
            <stop offset="0.13" stop-color="#288377" />
            <stop offset="0.28" stop-color="#48A197" />
            <stop offset="0.44" stop-color="#61B9B0" />
            <stop offset="0.61" stop-color="#73CAC2" />
            <stop offset="0.79" stop-color="#7DD4CC" />
            <stop offset="0.99" stop-color="#81D8D0" />
        </linearGradient>
    </defs>
</svg>