<svg width="28" height="24" viewBox="0 0 28 24" fill="none" xmlns="http://www.w3.org/2000/svg">
<path d="M7.76234 4.57133V2.48504C7.75514 1.78721 7.98535 1.21171 8.48174 0.715324C9.33784 -0.140769 10.2803 0.0102761 11.3954 0.0102761H13.827H16.1866C17.3089 0.0102761 18.3879 -0.119203 19.2512 0.744085C19.9634 1.4563 19.9563 2.26201 19.9563 3.19724V4.57853H26.3087C27.2439 4.57853 27.7331 4.54976 27.7475 5.65764C27.7619 6.67201 27.8698 9.96689 27.6683 10.787C27.2799 12.3697 25.9849 12.5999 24.6468 12.5999H17.6614C17.6254 12.0388 17.8052 11.4704 17.3664 11.0244C16.9276 10.5855 16.3161 10.7078 15.7477 10.7078H13.9205H11.9493C10.158 10.7078 10.0932 10.8014 10.1004 12.5999H2.89194C2.54662 12.5999 2.17975 12.6287 1.83443 12.5639C0.0071414 12.233 0 10.7079 0 9.29784V6.06771C0 4.67926 0.194191 4.57853 1.56826 4.57853H7.76954L7.76234 4.57133ZM10.604 1.96708C9.52493 2.01025 9.67598 2.47786 9.76231 3.35553C9.79828 3.7584 9.82704 4.16846 9.84143 4.57133H17.1506C17.3952 4.57133 17.6326 4.57853 17.8772 4.57133C17.8772 4.03178 18.0858 2.82315 18.0211 2.43467C17.9276 1.85195 17.1866 1.95988 16.7693 1.95988H10.6112L10.604 1.96708Z" fill="#81D8D0"/>
<path d="M11.9639 15.1246V12.7002C13.2228 12.7146 14.489 12.7002 15.748 12.7002V15.1246H11.9639Z" fill="#81D8D0"/>
<path d="M17.6537 14.427H24.7543C26.078 14.427 26.2579 14.4126 27.4881 13.9521C27.5168 14.096 27.4881 14.2975 27.4881 14.4485V21.0239C27.5024 22.9304 26.6247 23.4483 24.8334 23.4483H2.63973C0.4959 23.4483 0.20094 22.2973 0.208134 20.4268V13.9593C1.25127 14.4126 1.82683 14.4342 2.94191 14.4342H10.0856V15.5349C10.0856 17.2327 10.4885 17.0168 12.1071 17.0168H16.2868C16.848 17.0168 17.4452 17.0384 17.6178 16.3118C17.7113 15.9305 17.6609 14.873 17.6609 14.427H17.6537Z" fill="#81D8D0"/>
</svg>
