<svg width="22" height="24" viewBox="0 0 22 24" fill="none" xmlns="http://www.w3.org/2000/svg">
<path d="M11.0128 4.81256C11.0128 3.60256 10.9928 2.41253 11.0128 1.21253C11.0328 0.532526 11.4828 0.0925331 12.1628 0.0325331C13.2728 -0.0674669 14.2227 0.382516 15.2127 0.952516C15.0227 1.05252 14.8628 1.10252 14.7428 1.20252C14.3628 1.53252 13.9828 1.85253 13.6428 2.21253C13.4628 2.41253 13.3728 2.70253 13.6928 2.90253C14.0128 3.10253 14.1728 2.87251 14.3328 2.63251C14.8328 1.87251 15.5628 1.58256 16.3628 1.81256C17.3328 2.09256 17.8728 3.05253 17.6228 4.03253C17.5428 4.33253 17.3428 4.45251 17.0528 4.51251C15.5028 4.81251 14.4528 5.89258 14.1928 7.45258C14.1628 7.64258 14.1427 7.86253 14.2127 8.03253C14.2727 8.16253 14.4628 8.30255 14.6128 8.30255C14.7228 8.30255 14.8928 8.1325 14.9328 8.0025C15.0428 7.6625 15.0628 7.28257 15.1928 6.94257C15.7128 5.59257 17.1228 4.95255 18.5228 5.42255C19.8828 5.88255 20.6027 7.18257 20.2127 8.57257C20.0927 9.01257 20.1428 9.33255 20.4828 9.67255C21.2528 10.4325 21.3828 11.3725 21.0228 12.3625C20.6528 13.3725 19.9128 13.9626 18.8328 14.0926C18.5228 14.1326 18.0928 14.0826 18.1628 14.5726C18.2228 15.0226 18.6528 14.9825 18.9428 14.9025C19.5928 14.7225 20.2328 14.4526 20.9328 14.2026C21.2828 14.8926 21.3928 15.7225 20.9528 16.5025C20.6928 16.9625 20.2928 17.3826 19.8628 17.6926C19.5328 17.9326 19.3628 18.1425 19.4228 18.5325C19.5428 19.4725 19.3028 20.3125 18.6428 20.9825C18.3228 21.3125 17.8628 21.5025 17.4828 21.7825C17.2228 21.9725 16.9128 22.1525 16.7428 22.4125C16.0628 23.4725 14.6728 24.0225 13.3728 23.6725C12.0628 23.3225 11.0928 22.1925 11.0828 20.9125C11.0528 16.1825 11.0528 11.4426 11.0428 6.71259C11.0428 5.90259 11.4728 5.41252 12.2928 5.27252C12.5728 5.22252 12.8528 5.16254 12.8028 4.79254C12.7528 4.43254 12.4528 4.40253 12.1828 4.46253C11.8128 4.54253 11.4628 4.68256 11.0528 4.81256H11.0128ZM15.9528 10.9726C16.0428 10.9426 16.1328 10.9125 16.2228 10.8825C16.3328 10.8525 16.4428 10.8225 16.5428 10.7825C17.7728 10.3625 18.5328 9.50249 18.8428 8.24249C18.9028 7.99249 18.9328 7.70258 18.8928 7.45258C18.8728 7.31258 18.6928 7.12248 18.5628 7.10248C18.4428 7.09248 18.2628 7.25251 18.1728 7.38251C18.0928 7.50251 18.0928 7.67258 18.0728 7.83258C17.9628 8.88258 17.3828 9.57257 16.4328 9.94257C15.4928 10.3026 14.5828 10.2225 13.7828 9.54254C13.6828 9.46254 13.5828 9.35258 13.4728 9.33258C13.3128 9.30258 13.0528 9.2825 12.9928 9.3725C12.9028 9.4925 12.8928 9.75252 12.9528 9.89252C13.0228 10.0525 13.2028 10.2025 13.3728 10.2825C13.9228 10.5525 14.4828 10.8026 15.1028 11.0826C15.1128 11.1226 15.1428 11.2625 15.1928 11.3925C15.5128 12.3725 16.6128 13.2125 17.5428 13.1425C17.7228 13.1325 17.8828 12.9226 18.0528 12.8026C17.9228 12.6526 17.8027 12.4825 17.6527 12.3525C17.5827 12.2925 17.4328 12.3126 17.3228 12.3026C16.6528 12.2126 16.0927 11.6626 15.9627 10.9726H15.9528ZM15.8928 17.1926C15.8728 17.0226 15.8528 16.8925 15.8228 16.7525C15.5528 15.0825 14.4528 13.9626 12.8228 13.7026C12.6728 13.6826 12.4828 13.6326 12.3628 13.7026C12.2028 13.7826 12.0128 13.9425 11.9828 14.1025C11.9628 14.2025 12.1928 14.3725 12.3328 14.4825C12.3828 14.5225 12.4928 14.5025 12.5828 14.5125C13.9428 14.6425 14.9628 15.7326 15.0228 17.0926C15.0328 17.3626 14.9528 17.4825 14.7228 17.6125C13.6428 18.1925 13.0228 19.1026 12.8628 20.3126C12.8428 20.4726 12.8328 20.6626 12.8928 20.8126C12.9428 20.9326 13.0927 21.0726 13.2127 21.0826C13.3327 21.0826 13.4928 20.9725 13.5728 20.8725C13.6428 20.7725 13.6528 20.6126 13.6628 20.4726C13.7928 19.2026 14.7628 18.2026 16.0428 18.0626C16.1728 18.0526 16.3228 18.0625 16.4128 17.9925C16.5428 17.8925 16.7028 17.7225 16.6928 17.6025C16.6928 17.4725 16.5028 17.3325 16.3628 17.2525C16.2528 17.1925 16.0927 17.2326 15.9027 17.2226L15.8928 17.1926Z" fill="white"/>
<path d="M0.323223 14.1925C0.963223 14.4325 1.56319 14.6625 2.16319 14.8825C2.20319 14.8925 2.24318 14.9025 2.28318 14.9025C2.59318 14.9025 3.00322 15.0225 3.07322 14.5625C3.14322 14.0725 2.70318 14.1225 2.40318 14.0825C1.31318 13.9525 0.583228 13.3624 0.203228 12.3524C-0.166772 11.3624 -0.0268035 10.4225 0.733196 9.6625C1.0532 9.3425 1.13324 9.04245 1.02324 8.61245C0.593236 7.04245 1.47321 5.64247 3.06321 5.32247C4.59321 5.01247 6.00319 6.04246 6.22319 7.62246C6.22319 7.66246 6.2332 7.70247 6.2332 7.75247C6.2532 8.04247 6.28321 8.36252 6.68321 8.31252C7.06321 8.26252 7.05319 7.9425 7.04319 7.6625C6.97319 6.1825 5.74318 4.79249 4.28318 4.5325C3.70318 4.4325 3.6232 4.3525 3.5532 3.7925C3.4432 2.9525 3.89321 2.18252 4.68321 1.87252C5.45321 1.57252 6.29318 1.82253 6.78318 2.50253C6.82318 2.56253 6.85323 2.62252 6.89323 2.68252C7.04323 2.91252 7.21323 3.1025 7.51323 2.9125C7.80323 2.7325 7.75323 2.45253 7.58323 2.25253C7.26323 1.89253 6.90318 1.56252 6.53318 1.24252C6.40318 1.13252 6.2132 1.08249 5.9832 0.962488C6.9332 0.402488 7.84318 -0.0374731 8.90318 0.00252688C9.65318 0.0325269 10.1732 0.532476 10.1832 1.26248C10.2132 3.01248 10.1832 4.75247 10.1832 6.50247C10.1832 6.52247 10.1532 6.5425 10.1632 6.5325C9.76319 6.42249 9.3832 6.2925 8.9832 6.2225C8.7332 6.1725 8.48321 6.2325 8.43321 6.5425C8.38321 6.8525 8.6132 6.94247 8.8632 7.00247C9.9132 7.26247 10.1932 7.63255 10.1932 8.71255C10.1932 11.7025 10.1932 14.6825 10.1932 17.6725C10.1932 17.8225 10.1932 17.9725 10.1932 18.2125C9.92322 17.9725 9.74322 17.7525 9.50322 17.6225C9.04322 17.3625 8.57323 17.1125 8.08323 16.9225C7.96323 16.8725 7.75323 17.0725 7.58323 17.1625C7.66323 17.3225 7.71318 17.5325 7.84318 17.6225C8.04318 17.7625 8.31318 17.8125 8.53318 17.9225C9.66318 18.5025 10.3232 19.8225 10.1432 21.1125C9.96323 22.3925 8.99321 23.4425 7.74321 23.7025C6.42321 23.9725 5.1332 23.4125 4.4232 22.2925C4.2832 22.0725 4.02318 21.8925 3.78318 21.7925C2.40318 21.2125 1.7032 20.1625 1.8032 18.6525C1.8332 18.1825 1.73318 17.9025 1.28318 17.6425C0.0431843 16.9325 -0.336786 15.3625 0.313214 14.1825L0.323223 14.1925ZM6.16319 11.4425C6.15319 11.5025 6.1432 11.5925 6.1132 11.6725C5.8132 12.3525 5.2832 12.7125 4.5532 12.7925C4.2932 12.8225 4.03322 12.9025 4.07322 13.2525C4.11322 13.6225 4.40321 13.6224 4.68321 13.6024C5.72321 13.5224 6.63321 12.8025 6.93321 11.7825C7.01321 11.5025 7.1332 11.3725 7.4232 11.3225C8.0632 11.2125 8.62321 10.9025 9.06321 10.4425C9.17321 10.3225 9.21323 10.0125 9.14323 9.86245C9.02323 9.61245 8.77321 9.66253 8.56321 9.82253C8.45321 9.91253 8.3432 9.99254 8.2332 10.0825C7.4132 10.6925 6.52319 10.7825 5.60319 10.3925C4.68319 10.0025 4.13324 9.29249 4.02324 8.27249C3.96324 7.72249 3.80323 7.47251 3.51323 7.55251C3.05323 7.68251 3.14322 8.07248 3.19322 8.39248C3.35322 9.54248 3.93323 10.4126 4.95323 10.9726C5.33323 11.1826 5.75319 11.3026 6.16319 11.4726V11.4425ZM4.03318 18.0926C3.83318 18.0926 3.66318 18.0524 3.53318 18.1024C3.39318 18.1524 3.20322 18.2925 3.19322 18.4025C3.19322 18.5425 3.31322 18.7325 3.44322 18.8125C3.58322 18.9025 3.80319 18.8825 3.97319 18.9425C4.37319 19.0925 4.81319 19.1925 5.16319 19.4325C5.80319 19.8725 6.16319 20.5225 6.22319 21.3225C6.24319 21.6125 6.27322 21.9825 6.69322 21.9325C7.13322 21.8925 7.0932 21.5325 7.0532 21.2125C6.9132 20.0425 6.34322 19.1325 5.32322 18.5625C4.87322 18.3125 4.83318 18.0224 4.90318 17.6024C5.10318 16.3724 6.01319 15.5625 7.41319 15.3625C7.67319 15.3225 7.9332 15.2725 7.9232 14.9325C7.9132 14.5725 7.63321 14.5625 7.37321 14.5625C6.70321 14.5625 6.10321 14.7725 5.56321 15.1625C4.58321 15.8625 4.09319 16.8425 4.04319 18.0825L4.03318 18.0926Z" fill="white"/>
</svg>
