<svg width="23" height="23" viewBox="0 0 23 23" fill="none" xmlns="http://www.w3.org/2000/svg">
<path d="M15.8903 0C16.4203 0.13 16.9604 0.230024 17.4804 0.400024C20.3904 1.42002 22.2304 4.03994 22.2304 7.12994C22.2304 10.2099 20.2904 12.97 17.3804 13.95C16.5904 14.22 15.7504 14.32 14.9304 14.48C13.5404 14.74 12.2304 15.21 10.9804 15.86C10.0404 16.35 9.52035 16.27 8.77035 15.53C8.03035 14.8 7.29039 14.06 6.56039 13.32C6.03039 12.78 5.89036 12.16 6.22036 11.54C7.17036 9.81998 7.64036 7.95998 7.97036 6.03998C8.52036 2.81998 10.9004 0.570007 14.1304 0.0700073C14.2004 0.0600073 14.2603 0.02 14.3303 0C14.8503 0 15.3703 0 15.8903 0Z" fill="white"/>
<path d="M0 17.3702C0.03 17.3102 0.0699756 17.2502 0.0999756 17.1902C0.669976 15.6502 2.31 15.1601 3.62 16.1401C3.67 16.1701 3.70999 16.2101 3.79999 16.2701C4.57999 15.4801 5.34999 14.6902 6.10999 13.9102C6.84999 14.6602 7.54997 15.3602 8.27997 16.0902C7.51997 16.8202 6.71998 17.5902 5.91998 18.3702C6.68998 19.3302 6.84998 20.2702 6.22998 21.2302C5.72998 22.0002 4.96995 22.3502 4.06995 22.2002C2.90995 22.0002 2.31998 21.2302 2.16998 20.0702C1.01998 19.9602 0.339949 19.3102 0.00994873 18.2402C0.00994873 17.9502 0.00994873 17.6602 0.00994873 17.3702H0Z" fill="white"/>
</svg>
