<svg width="23" height="23" viewBox="0 0 23 23" fill="none" xmlns="http://www.w3.org/2000/svg">
<path d="M9.78909 18.7795C9.18909 18.6895 8.74912 18.4195 8.50912 17.8795C8.10912 16.9495 8.75909 15.8995 9.78909 15.8595C10.7591 15.8295 11.7291 15.8395 12.6991 15.8595C13.4291 15.8795 14.0191 16.4395 14.0991 17.1395C14.1791 17.8795 13.7291 18.5196 13.0091 18.7196C12.9291 18.7396 12.8391 18.7595 12.7691 18.7695C12.6391 19.3895 12.7891 19.5796 13.3891 19.5796C14.0691 19.5796 14.7491 19.5796 15.4291 19.5796C16.2091 19.5796 16.7791 19.0295 16.8091 18.2495C16.8291 17.8095 16.8091 17.3696 16.8091 16.9196C16.4791 16.8696 16.1691 16.8395 15.8691 16.7795C14.5691 16.5295 13.4791 15.8896 12.5391 14.9696C12.2491 14.6896 11.9091 14.4496 11.5791 14.2096C11.3791 14.0596 11.1391 14.0596 10.9491 14.2096C10.5891 14.4796 10.2191 14.7496 9.89907 15.0596C8.54907 16.3396 6.96907 16.9895 5.08907 16.8795C2.44907 16.7195 0.179086 14.4796 0.039086 11.8296C-0.010914 10.8796 -0.0408871 9.8996 0.129113 8.9696C0.479113 7.0196 2.17909 5.63956 4.16909 5.60956C5.94909 5.57956 7.72911 5.60955 9.49911 5.59955C11.7991 5.59955 14.0891 5.59955 16.3891 5.59955C16.5191 5.59955 16.6391 5.59955 16.8091 5.59955C16.8091 4.99955 16.8091 4.42956 16.8091 3.85956C16.8091 2.83956 16.8391 2.80957 17.8591 2.80957C18.2691 2.80957 18.6791 2.80957 19.0891 2.80957C19.5291 2.80957 19.7191 3.00952 19.7191 3.44952C19.7191 4.16952 19.7191 4.88957 19.7191 5.61957C19.7191 5.80957 19.7791 5.89955 19.9491 5.97955C21.6191 6.76955 22.4991 8.08958 22.5091 9.93958C22.5091 10.8096 22.5191 11.6896 22.3791 12.5496C22.1191 14.0396 21.2691 15.1895 19.9991 16.0195C19.7891 16.1595 19.7191 16.2895 19.7191 16.5295C19.6991 17.4195 19.7591 18.3296 19.5891 19.1996C19.2291 21.1096 17.4791 22.4795 15.5391 22.5095C14.7491 22.5095 13.9691 22.5095 13.1791 22.5095C11.2891 22.5095 9.84911 21.0796 9.80911 19.1896C9.80911 19.0596 9.80911 18.9396 9.80911 18.7996L9.78909 18.7795ZM11.2391 7.56958C10.9791 7.56958 10.7191 7.56958 10.4591 7.56958C8.41907 7.56958 6.38908 7.56958 4.34908 7.56958C2.93908 7.56958 1.97909 8.54959 1.97909 9.95959C1.97909 10.5496 1.95911 11.1495 1.99911 11.7395C2.12911 13.6495 3.95909 15.1295 5.85909 14.9095C6.89909 14.7895 7.74912 14.3395 8.50912 13.6295C8.95912 13.2095 9.44909 12.8095 9.97909 12.4895C10.7991 11.9895 11.6791 11.9895 12.4991 12.4895C12.9891 12.7795 13.4091 13.1695 13.8591 13.5095C14.3591 13.8795 14.8291 14.3296 15.3791 14.5796C17.4991 15.5496 19.8791 14.4495 20.3891 12.2595C20.5491 11.5595 20.4991 10.7996 20.5091 10.0696C20.5291 8.50958 19.5791 7.57959 18.0191 7.57959C15.7591 7.57959 13.4891 7.57959 11.2291 7.57959L11.2391 7.56958Z" fill="white"/>
<path d="M15.9087 0C16.4487 0 16.8987 0.429971 16.9087 0.969971C16.9087 1.51997 16.4587 1.97998 15.9087 1.97998C15.3687 1.97998 14.9287 1.52999 14.9287 0.98999C14.9287 0.43999 15.3587 0.01 15.9087 0Z" fill="white"/>
<path d="M18.7588 1.4397C18.7588 1.7397 18.5388 1.97968 18.2388 1.97968C17.9688 1.97968 17.7188 1.74967 17.7188 1.46967C17.7188 1.17967 17.9488 0.929688 18.2388 0.929688C18.5188 0.929688 18.7488 1.14969 18.7588 1.42969V1.4397Z" fill="white"/>
</svg>
