<svg width="5" height="7" viewBox="0 0 5 7" fill="none" xmlns="http://www.w3.org/2000/svg">
    <path
        d="M3.72007 2.38094C3.72007 2.75094 3.73007 3.12091 3.72007 3.48091C3.70007 3.89091 3.52007 4.2309 3.19007 4.4709C2.74007 4.8009 2.26007 4.8409 1.76007 4.5909C1.36007 4.3909 1.12007 4.05091 1.04007 3.60091C1.03007 3.53091 1.02007 3.47096 1.02007 3.40096C1.02007 2.69096 1.01007 1.98096 1.02007 1.28096C1.03007 0.770962 1.30007 0.400966 1.74007 0.160966C2.11007 -0.0390336 2.50007 -0.0490824 2.89007 0.110918C3.29007 0.280918 3.55007 0.570922 3.67007 0.990922C3.71007 1.13092 3.72007 1.27097 3.72007 1.41097C3.72007 1.73097 3.72007 2.05092 3.72007 2.36092V2.38094Z"
        fill="white" />
    <path
        d="M2.37 6.78072C1.93 6.78072 1.48 6.78072 1.04 6.78072C0.840001 6.78072 0.7 6.66066 0.68 6.47066C0.66 6.28066 0.799998 6.11068 0.989998 6.11068C1.31 6.11068 1.63 6.11068 1.95 6.11068C2.01 6.11068 2.03 6.09072 2.03 6.03072C2.03 5.97072 2.03 5.90066 2.03 5.84066C2.03 5.75066 2.02999 5.74067 1.93999 5.73067C1.73999 5.69067 1.55 5.63074 1.37 5.55074C0.899995 5.33074 0.540001 4.99072 0.290001 4.53072C0.100001 4.18072 0 3.80072 0 3.40072C0 3.18072 0 2.96068 0 2.74068C0 2.59068 0.0599969 2.48074 0.199997 2.42074C0.329997 2.36074 0.449998 2.38066 0.559998 2.47066C0.649998 2.54066 0.68 2.64069 0.68 2.75069C0.68 3.00069 0.68 3.25069 0.68 3.50069C0.7 3.94069 0.879997 4.32069 1.2 4.62069C1.47 4.88069 1.8 5.04077 2.18 5.08077C2.55 5.12077 2.91 5.05067 3.23 4.85067C3.53 4.67067 3.74999 4.43068 3.89999 4.11068C4.01999 3.87068 4.06 3.61066 4.06 3.34066C4.06 3.13066 4.06 2.93066 4.06 2.72066C4.06 2.48066 4.26 2.3307 4.49 2.3807C4.62 2.4107 4.73 2.53075 4.73 2.68075C4.73 2.96075 4.73 3.24071 4.73 3.52071C4.71 3.99071 4.56 4.42073 4.28 4.79073C3.91 5.28073 3.42 5.59078 2.81 5.71078C2.69 5.73078 2.71 5.71077 2.71 5.83077C2.71 5.90077 2.71 5.96072 2.71 6.03072C2.71 6.08072 2.73 6.10067 2.78 6.10067C3.09 6.10067 3.4 6.10067 3.71 6.10067C3.88 6.10067 4.01 6.19077 4.05 6.33077C4.12 6.56077 3.97 6.77072 3.73 6.78072C3.55 6.78072 3.36999 6.78072 3.18999 6.78072C2.91999 6.78072 2.65 6.78072 2.38 6.78072H2.37Z"
        fill="white" />
</svg>