<svg width="24" height="24" viewBox="0 0 24 24" fill="none" xmlns="http://www.w3.org/2000/svg">
<path d="M20.0221 14.5426C19.426 13.9465 18.4517 13.9465 17.8556 14.5426L16.4838 15.9143C16.0415 16.3566 15.3365 16.4271 14.8172 16.0682C13.9647 15.4785 12.5738 14.4144 10.8879 12.735C9.20211 11.0492 8.13805 9.65821 7.55474 8.80569C7.19579 8.28648 7.26629 7.58777 7.70858 7.13907L9.08032 5.76737C9.67645 5.17124 9.67645 4.19692 9.08032 3.6008L6.19584 0.716314C5.24075 -0.238771 3.69594 -0.238771 2.74085 0.716314L0.971698 2.48547C0.971698 2.48547 -3.464 6.92114 6.61888 16.9976C16.6953 27.0741 21.131 22.6448 21.131 22.6448L22.9002 20.8757C23.8553 19.9206 23.8553 18.3758 22.9002 17.4207L20.0157 14.5362L20.0221 14.5426Z" fill="#81D8D0"/>
</svg>
