<svg width="9" height="9" viewBox="0 0 9 9" fill="none" xmlns="http://www.w3.org/2000/svg">
<path d="M8.63728 8.53018H0.0272634C-0.0227366 8.15018 -0.00274885 7.7802 0.0772511 7.4202C0.427251 5.7502 1.86725 4.57011 3.57725 4.58011C4.23725 4.58011 4.88727 4.56014 5.53727 4.61014C7.02727 4.74014 8.34726 5.99012 8.58726 7.46012C8.63726 7.75012 8.63726 8.05013 8.64726 8.35013C8.64726 8.41013 8.63727 8.47018 8.62727 8.53018H8.63728Z" fill="#81D8D0"/>
<path d="M6.45711 2.16011C6.45711 3.37011 5.49712 4.32001 4.30712 4.31001C3.13712 4.30001 2.19711 3.33007 2.20711 2.12007C2.20711 0.940073 3.17713 -0.00992177 4.35713 7.82288e-05C5.51713 7.82288e-05 6.45711 0.980112 6.45711 2.16011Z" fill="#81D8D0"/>
</svg>
